<svg xmlns="http://www.w3.org/2000/svg" xmlns:xlink="http://www.w3.org/1999/xlink" width="1920" height="480" viewBox="0 0 1920 480">
  <defs>
    <linearGradient id="linear-gradient" x1="0.5" y1="-0.444" x2="0.5" y2="1" gradientUnits="objectBoundingBox">
      <stop offset="0" stop-color="#fff"/>
      <stop offset="1" stop-color="#f1d72d"/>
    </linearGradient>
    <clipPath id="clip-logo1">
      <rect width="1920" height="480"/>
    </clipPath>
  </defs>
  <g id="logo1" clip-path="url(#clip-logo1)">
    <rect width="1920" height="480" fill="url(#linear-gradient)"/>
    <g id="eon" transform="translate(334 121)">
      <path id="Path_1" data-name="Path 1" d="M229.742,113.059h-31.1v2.876a80.188,80.188,0,1,1-35.829-66.978L97.639,94.828l18.914,26.908,93.2-65.661,2.194-1.462A114.123,114.123,0,0,0,192.3,30.921l-1.267-1.8-.439.292a114.8,114.8,0,1,0,39,86.379A8.869,8.869,0,0,0,229.742,113.059Z" transform="translate(0 3.201)" fill="#ff671d"/>
      <path id="Path_2" data-name="Path 2" d="M191.913,2.36V39.6a80.285,80.285,0,1,1-53.962,0V2.36a114.846,114.846,0,1,0,53.962,0Z" transform="translate(194.061 9.144)" fill="#ff671d"/>
      <path id="Path_3" data-name="Path 3" d="M100.938,0H70.52V120.355h30.418Z" transform="translate(273.24)" fill="#ff671d"/>
      <path id="Path_4" data-name="Path 4" d="M100.142,233.565c5.606-.39,35.244,0,35.244,0V107.556A79.807,79.807,0,0,1,148.547,63.1a59.322,59.322,0,0,1,51.281-27.932,60.3,60.3,0,0,1,50.209,24.861,74.69,74.69,0,0,1,14.624,45.139v128.2H300V110.724a120.333,120.333,0,0,0-20.035-67.709,90.814,90.814,0,0,0-79.8-41.971,94.232,94.232,0,0,0-77.994,40.7,118.453,118.453,0,0,0-22.033,69.512Z" transform="translate(388.005 3.83)" fill="#ff671d"/>
      <path id="Path_5" data-name="Path 5" d="M160.067,5.056a7.8,7.8,0,0,1,8.726,9.116V19.68H150.61V5.056Zm0,21.156a7.746,7.746,0,0,1,8.726,8.921v65.223H150.61v-74Z" transform="translate(583.56 19.317)" stroke="#000" stroke-miterlimit="10" stroke-width="1"/>
      <path id="Path_6" data-name="Path 6" d="M156.22,46.69c0-24.373,11.212-36.9,33.684-37.34s34.123,10.773,34.123,33V86.223c0,18.621-11.5,27.98-34.61,28.419-16.428,0-26.859-7.848-31.1-23.545h20.132c1.219,5.313,5.46,7.848,13.015,7.848q14.624,0,14.624-17.207V73.988a23,23,0,0,1-20.668,10.919C165.823,84.907,156.22,72.038,156.22,46.69Zm49.526.585c0-14.965-4.875-22.375-15.306-22.375s-15.648,7.166-15.648,22.228,5.313,21.4,15.16,21.4,15.258-7.214,15.794-21.4Z" transform="translate(605.296 36.179)" stroke="#000" stroke-miterlimit="10" stroke-width="1"/>
      <path id="Path_7" data-name="Path 7" d="M224.184,84.258a8.34,8.34,0,0,1-9.018-9.213V36.974a10.918,10.918,0,0,0-12.577-11.455c-8.092,0-12.187,3.753-12.333,11.455V84.258H171.83V40.728c0-21.107,10.383-31.588,31.051-31.588s30.759,10.48,30.613,31.588V84.258Z" transform="translate(665.779 35.414)" stroke="#000" stroke-miterlimit="10" stroke-width="1"/>
      <path id="Path_8" data-name="Path 8" d="M195.578,5.062a7.8,7.8,0,0,1,8.774,9.116v5.508H186.17V5.062Zm0,21.156a7.8,7.8,0,0,1,8.774,8.921v65.223H186.17v-74Z" transform="translate(721.342 19.311)" stroke="#000" stroke-miterlimit="10" stroke-width="1"/>
      <path id="Path_9" data-name="Path 9" d="M211.94,39.561h-1.9v41c0,3.12,1.755,4.875,5.313,4.875h5.85V99.568a101.094,101.094,0,0,1-19.157,0c-6.825-.682-10.09-4.875-9.993-13.308V5h9.457a9.309,9.309,0,0,1,8.531,9.749V26.3H221.2v4.046a8.922,8.922,0,0,1-9.262,9.213Z" transform="translate(744.123 19.373)" stroke="#000" stroke-miterlimit="10" stroke-width="1"/>
      <path id="Path_10" data-name="Path 10" d="M209.547,5.062a7.8,7.8,0,0,1,8.774,9.116v5.508H200.09V5.062Zm0,21.156a7.8,7.8,0,0,1,8.774,8.921v65.223H200.09v-74Z" transform="translate(775.277 19.311)" stroke="#000" stroke-miterlimit="10" stroke-width="1"/>
      <path id="Path_11" data-name="Path 11" d="M258.352,84.258a8.34,8.34,0,0,1-9.018-9.213V36.974a10.967,10.967,0,0,0-12.577-11.455c-8.092,0-12.187,3.753-12.333,11.455V84.258H205.95V40.728C205.95,19.62,216.333,9.14,237,9.14s30.808,10.48,30.661,31.588V84.258Z" transform="translate(797.982 35.414)" stroke="#000" stroke-miterlimit="10" stroke-width="1"/>
      <path id="Path_12" data-name="Path 12" d="M220.03,46.69c0-24.373,11.212-36.9,33.635-37.34s34.123,10.773,34.123,33V86.223c0,18.621-11.5,27.98-34.61,28.419A29.243,29.243,0,0,1,222.126,91.1h20.132c1.219,5.313,5.46,7.848,12.967,7.848q14.624,0,14.624-17.207V73.988a23.156,23.156,0,0,1-20.571,10.919C229.779,84.907,220.03,72.038,220.03,46.69Zm49.526.585c0-14.965-4.875-22.375-15.355-22.375s-15.453,7.409-15.453,22.375,5.362,21.4,15.209,21.4,15.209-7.361,15.794-21.546Z" transform="translate(852.537 36.179)" stroke="#000" stroke-miterlimit="10" stroke-width="1"/>
      <path id="Path_13" data-name="Path 13" d="M168.947,60.4A22.473,22.473,0,0,1,189.47,49.044c19.5.682,28.858,13.551,28.858,39s-11.212,37.1-33.635,37.486S150.57,114.608,150.57,92.38V28.912h9.164a8.192,8.192,0,0,1,9.018,9.408Zm0,26.469c0,14.965,4.875,22.521,15.209,22.521s15.6-7.556,15.6-22.521S194.247,65.618,184.4,65.618,169.484,72.589,168.947,86.871Z" transform="translate(583.405 111.819)" stroke="#000" stroke-miterlimit="10" stroke-width="1"/>
      <path id="Path_14" data-name="Path 14" d="M227.16,77.715c0,12.723-3.168,21.107-9.749,25.153a41.239,41.239,0,0,1-21.351,5.752,35.969,35.969,0,0,1-20.522-6.288q-9.432-6.069-9.408-24.373V33.21h18.182V81.469a12.334,12.334,0,1,0,24.373,0v-39c0-6.142,2.73-9.213,8.774-9.213h9.311Z" transform="translate(643.694 128.677)" stroke="#000" stroke-miterlimit="10" stroke-width="1"/>
      <path id="Path_15" data-name="Path 15" d="M213.738,94.734c7.653,0,11.455-2.242,11.455-7.019,0-3.753-6.288-6.825-18.719-9.067C190.437,75.674,182.1,68.411,182.1,56.809c0-15.94,12.333-23.5,28.858-23.788a35.579,35.579,0,0,1,22.18,6.288,23.77,23.77,0,0,1,8.628,18.036h-11.5a7.8,7.8,0,0,1-8.043-4.582c-1.267-3.217-4.875-4.875-10.968-4.875-7.117,0-10.676,2-10.676,5.752s4.875,6.727,14.088,8.531c12.333,2.535,20.376,5.752,24.373,9.506a18.726,18.726,0,0,1,4.875,13.162c0,18.182-13.99,24.909-33.148,24.909a33.732,33.732,0,0,1-22.667-6.581,22.573,22.573,0,0,1-8.238-19.157H198.48C199.065,91.906,204.817,94.734,213.738,94.734Z" transform="translate(696.65 127.745)" stroke="#000" stroke-miterlimit="10" stroke-width="1"/>
      <path id="Path_16" data-name="Path 16" d="M204.067,28.925a7.846,7.846,0,0,1,8.774,9.116V43.5H194.61V28.876Zm0,21.156a7.8,7.8,0,0,1,8.774,8.969v65.028H194.61v-74Z" transform="translate(754.044 111.806)" stroke="#000" stroke-miterlimit="10" stroke-width="1"/>
      <path id="Path_17" data-name="Path 17" d="M252.852,108.1a8.29,8.29,0,0,1-9.018-9.213V60.814a10.966,10.966,0,0,0-12.577-11.455c-8.092,0-12.187,3.753-12.333,11.455V108.1H200.45V64.616c0-21.156,10.383-31.636,31.052-31.636s30.808,10.48,30.661,31.636V108.1Z" transform="translate(776.672 127.786)" stroke="#000" stroke-miterlimit="10" stroke-width="1"/>
      <path id="Path_18" data-name="Path 18" d="M247.535,109.727q-32.9-1.024-32.855-39c0-25.3,11.065-37.73,33.1-37.73q34.512,0,32.416,43.384H233.4c.682,11.309,5.508,17.061,14.38,17.061a16.479,16.479,0,0,0,11.748-5.313,7.993,7.993,0,0,1,6.191-2.681h13.405C275.126,101.245,265.133,109.727,247.535,109.727ZM233.691,62.979H260.94c-1.121-9.749-5.655-14.624-13.405-14.624S235.056,53.181,233.691,62.979Z" transform="translate(831.808 127.863)" stroke="#000" stroke-miterlimit="10" stroke-width="1"/>
      <path id="Path_19" data-name="Path 19" d="M263.328,94.734c7.653,0,11.455-2.242,11.455-7.019,0-3.753-6.288-6.825-18.719-9.067-16.037-2.974-24.373-10.237-24.373-21.838,0-15.94,12.333-23.5,28.858-23.788a35.579,35.579,0,0,1,22.18,6.288,23.77,23.77,0,0,1,8.628,18.036h-11.5a7.8,7.8,0,0,1-8.043-4.582c-1.267-3.217-4.875-4.875-10.968-4.875-7.117,0-10.675,2-10.675,5.752s4.875,6.727,14.088,8.531c12.333,2.535,20.376,5.752,24.373,9.506A18.726,18.726,0,0,1,293.5,84.838c0,18.182-13.99,24.909-33.148,24.909a33.732,33.732,0,0,1-22.667-6.581,22.573,22.573,0,0,1-8.238-19.157H248.07C248.655,91.906,254.407,94.734,263.328,94.734Z" transform="translate(888.793 127.745)" stroke="#000" stroke-miterlimit="10" stroke-width="1"/>
      <path id="Path_20" data-name="Path 20" d="M277.668,94.734c7.653,0,11.455-2.242,11.455-7.019,0-3.753-6.288-6.825-18.719-9.067-15.989-2.974-24.373-10.237-24.373-21.838,0-15.94,12.333-23.5,28.858-23.788a35.587,35.587,0,0,1,22.18,6.288A23.606,23.606,0,0,1,305.7,57.345h-11.5a7.8,7.8,0,0,1-8.043-4.728c-1.267-3.217-4.875-4.875-10.968-4.875-7.117,0-10.675,2-10.675,5.752s4.875,6.727,14.088,8.531c12.333,2.535,20.376,5.752,24.373,9.506a18.726,18.726,0,0,1,4.875,13.162c0,18.182-13.99,24.909-33.148,24.909a33.732,33.732,0,0,1-22.667-6.581,22.573,22.573,0,0,1-8.238-19.157H262.41C262.995,91.906,268.747,94.734,277.668,94.734Z" transform="translate(944.356 127.745)" stroke="#000" stroke-miterlimit="10" stroke-width="1"/>
    </g>
  </g>
</svg>
